<svg width="48" height="48" viewBox="0 0 48 48" fill="none" xmlns="http://www.w3.org/2000/svg">
<circle cx="24" cy="24" r="24" fill="white"/>
<path d="M12.932 30.882C12.9173 30.882 12.866 30.86 12.778 30.816C12.7047 30.7867 12.6607 30.772 12.646 30.772C12.6313 30.772 12.624 30.7793 12.624 30.794C12.624 30.8233 12.6167 30.838 12.602 30.838L12.558 30.794L12.514 30.86C12.4113 30.8013 12.36 30.7647 12.36 30.75C12.3307 30.7647 12.3087 30.772 12.294 30.772C12.2793 30.7573 12.272 30.7207 12.272 30.662L12.096 30.618C12.0813 30.618 12.0667 30.6253 12.052 30.64C12.0373 30.6693 12.0227 30.684 12.008 30.684C11.964 30.684 11.92 30.662 11.876 30.618C11.832 30.618 11.81 30.6473 11.81 30.706H11.7C11.6853 30.706 11.634 30.6767 11.546 30.618C11.458 30.574 11.3993 30.552 11.37 30.552C11.3553 30.552 11.3187 30.5593 11.26 30.574C11.216 30.6033 11.1867 30.618 11.172 30.618H10.93C10.8127 30.5007 10.732 30.442 10.688 30.442L10.622 30.508C10.5927 30.4787 10.556 30.464 10.512 30.464H10.358C10.314 30.4347 10.2187 30.3833 10.072 30.31C9.92533 30.2367 9.808 30.1853 9.72 30.156C9.69067 30.156 9.676 30.1707 9.676 30.2C9.456 29.9653 9.302 29.848 9.214 29.848H9.192C9.192 29.8627 9.18467 29.87 9.17 29.87C9.15533 29.87 9.13333 29.8553 9.104 29.826L9.038 29.87C9.02333 29.7967 8.98667 29.7527 8.928 29.738C8.884 29.7233 8.81067 29.694 8.708 29.65C8.69333 29.65 8.67133 29.628 8.642 29.584C8.62733 29.5547 8.61267 29.54 8.598 29.54C8.58333 29.54 8.56867 29.5473 8.554 29.562C8.554 29.5767 8.54667 29.584 8.532 29.584L8.356 29.452V29.386C8.20933 29.342 8.12867 29.3053 8.114 29.276C8.09933 29.2907 8.08467 29.298 8.07 29.298C8.05533 29.21 8.01867 29.166 7.96 29.166C7.93067 29.166 7.90867 29.1733 7.894 29.188C7.83533 29.0853 7.784 29.034 7.74 29.034V28.968L7.476 28.858C7.388 28.6967 7.31467 28.616 7.256 28.616H7.212C7.19733 28.6307 7.17533 28.638 7.146 28.638L6.948 28.44C6.91867 28.4253 6.86 28.374 6.772 28.286V28.198C6.74267 28.1687 6.706 28.154 6.662 28.154C6.69133 28.1247 6.58133 28 6.332 27.78C6.31733 27.736 6.29533 27.6773 6.266 27.604C6.23667 27.516 6.20733 27.4207 6.178 27.318C6.16333 27.318 6.14867 27.3253 6.134 27.34C6.06067 27.2667 5.89933 27.2227 5.65 27.208C5.65 27.164 5.64267 27.1347 5.628 27.12C5.584 27.1493 5.562 27.1713 5.562 27.186C5.54733 27.1713 5.52533 27.1567 5.496 27.142C5.46667 27.1273 5.42267 27.1127 5.364 27.098L5.1 27.01C5.08533 26.9953 5.04133 26.9733 4.968 26.944C4.90933 26.9 4.82133 26.8413 4.704 26.768L4.528 26.548L4.484 26.592L4.352 26.504V26.438C4.14667 26.262 4.01467 26.0787 3.956 25.888C3.98533 25.8147 3.98533 25.6313 3.956 25.338L4.242 24.92C4.35933 24.92 4.418 24.9493 4.418 25.008C4.418 25.0813 4.374 25.1473 4.286 25.206C4.21267 25.2647 4.16867 25.316 4.154 25.36C4.198 25.404 4.242 25.426 4.286 25.426C4.27133 25.4553 4.264 25.492 4.264 25.536C4.264 25.624 4.308 25.712 4.396 25.8C4.41067 25.8147 4.44 25.822 4.484 25.822C4.484 25.822 4.49133 25.822 4.506 25.822C4.53533 25.822 4.56467 25.8147 4.594 25.8H4.77V25.954C4.858 26.1007 4.924 26.174 4.968 26.174C4.98267 26.174 4.99 26.1667 4.99 26.152C4.97533 26.1373 4.97533 26.13 4.99 26.13C5.04867 26.13 5.10733 26.1447 5.166 26.174C5.23933 26.306 5.31267 26.372 5.386 26.372C5.342 26.372 5.37867 26.3573 5.496 26.328L5.606 26.46C5.694 26.416 5.738 26.372 5.738 26.328C5.738 26.3133 5.72333 26.2767 5.694 26.218C5.67933 26.1593 5.66467 26.1227 5.65 26.108V26.02C5.65 25.932 5.61333 25.8 5.54 25.624V25.184L5.606 25.03C5.59133 25.0153 5.584 24.9933 5.584 24.964L5.65 24.678C5.76733 24.5607 5.78933 24.4507 5.716 24.348C5.73067 24.3333 5.804 24.282 5.936 24.194C5.95067 24.194 5.98 24.216 6.024 24.26L5.892 24.656C5.87733 24.656 5.85533 24.6707 5.826 24.7C5.85533 24.788 5.86267 24.876 5.848 24.964L5.804 25.228L5.848 25.712C5.848 25.7267 5.86267 25.734 5.892 25.734C5.87733 25.7633 5.87 25.7927 5.87 25.822C5.87 25.8367 5.87 25.844 5.87 25.844L5.98 26.372L6.024 26.416C6.05333 26.5333 6.112 26.6507 6.2 26.768C6.22933 26.7533 6.25133 26.746 6.266 26.746C6.28067 26.7313 6.288 26.724 6.288 26.724L6.398 26.746C6.398 26.7607 6.40533 26.7753 6.42 26.79H6.508L6.552 26.834C6.58133 26.8193 6.61067 26.7827 6.64 26.724C6.78667 26.768 6.882 26.8487 6.926 26.966C7.08733 26.966 7.19 26.9587 7.234 26.944C7.278 26.9733 7.30733 27.0247 7.322 27.098C7.38067 27.0687 7.41 27.054 7.41 27.054C7.43933 27.054 7.46867 27.0613 7.498 27.076C7.542 27.0907 7.57133 27.098 7.586 27.098C7.57133 27.098 7.59333 27.076 7.652 27.032H7.806C7.83533 27.1053 7.87933 27.142 7.938 27.142C7.96733 27.142 8.004 27.1347 8.048 27.12C8.092 27.0907 8.12133 27.076 8.136 27.076C8.16533 27.076 8.202 27.098 8.246 27.142C8.29 27.186 8.31933 27.208 8.334 27.208L8.422 27.186C8.422 27.2153 8.43667 27.2447 8.466 27.274C8.466 27.274 8.54667 27.2593 8.708 27.23C8.72267 27.2153 8.74467 27.2007 8.774 27.186C8.80333 27.1567 8.83267 27.142 8.862 27.142C9.05267 27.2447 9.18467 27.296 9.258 27.296C9.28733 27.296 9.31667 27.2813 9.346 27.252V27.318C9.44867 27.2593 9.5 27.23 9.5 27.23L9.786 27.318C9.84467 27.318 9.92533 27.2667 10.028 27.164C10.072 27.208 10.116 27.23 10.16 27.23C10.1747 27.23 10.182 27.2227 10.182 27.208H10.204C10.2187 27.208 10.2333 27.2227 10.248 27.252C10.2773 27.2667 10.2993 27.274 10.314 27.274C10.3287 27.274 10.3507 27.274 10.38 27.274C10.4093 27.274 10.4533 27.2667 10.512 27.252H10.688C10.776 27.252 10.8567 27.2153 10.93 27.142C10.974 27.2447 11.018 27.296 11.062 27.296H11.59C11.5753 27.3107 11.5973 27.318 11.656 27.318C11.6707 27.318 11.6927 27.3107 11.722 27.296C11.7513 27.2813 11.7733 27.274 11.788 27.274C11.8173 27.274 11.832 27.2813 11.832 27.296C11.8467 27.3107 11.8613 27.318 11.876 27.318C11.8907 27.318 11.9347 27.3107 12.008 27.296C12.0813 27.2667 12.14 27.252 12.184 27.252C12.1987 27.252 12.206 27.2593 12.206 27.274C12.2207 27.2887 12.2353 27.296 12.25 27.296C12.2647 27.296 12.2867 27.2887 12.316 27.274C12.36 27.2447 12.3893 27.23 12.404 27.23C12.4187 27.23 12.47 27.2447 12.558 27.274L12.602 27.23C12.6167 27.2447 12.6753 27.252 12.778 27.252C12.7927 27.252 12.8 27.2447 12.8 27.23C12.8147 27.2153 12.8367 27.208 12.866 27.208C12.8807 27.208 12.9027 27.2153 12.932 27.23C12.976 27.2447 13.0127 27.252 13.042 27.252L13.24 27.208C13.3133 27.208 13.3573 27.2007 13.372 27.186L13.416 27.23C13.4453 27.186 13.482 27.164 13.526 27.164C13.5407 27.164 13.548 27.1713 13.548 27.186C13.548 27.2007 13.5627 27.208 13.592 27.208C13.6067 27.208 13.6067 27.2007 13.592 27.186C13.592 27.1713 13.6213 27.1567 13.68 27.142H13.746C13.7607 27.142 13.79 27.142 13.834 27.142C13.878 27.1273 13.9367 27.12 14.01 27.12H14.252C14.2667 27.12 14.274 27.1127 14.274 27.098C14.2887 27.0687 14.3033 27.054 14.318 27.054H14.406C14.4353 27.0687 14.4647 27.076 14.494 27.076L14.582 27.01C14.6993 26.9953 14.78 26.988 14.824 26.988C14.8827 26.9733 14.9047 26.966 14.89 26.966C15.0953 26.9073 15.242 26.8633 15.33 26.834C15.4327 26.8047 15.4767 26.79 15.462 26.79C15.462 26.8047 15.4913 26.8193 15.55 26.834C15.5647 26.8193 15.572 26.7827 15.572 26.724C15.572 26.6653 15.6307 26.636 15.748 26.636C15.7773 26.636 15.8213 26.6507 15.88 26.68C15.88 26.6947 15.8947 26.746 15.924 26.834C15.8653 26.9367 15.7627 26.988 15.616 26.988C15.6013 26.988 15.5867 26.9807 15.572 26.966H15.55C15.5207 26.966 15.4547 26.9953 15.352 27.054C15.264 27.1127 15.2127 27.142 15.198 27.142C15.154 27.142 15.1173 27.164 15.088 27.208L15.022 27.164C14.846 27.164 14.626 27.2007 14.362 27.274C14.23 27.318 14.186 27.34 14.23 27.34C14.186 27.34 14.142 27.3327 14.098 27.318H13.988C13.9733 27.318 13.9587 27.3253 13.944 27.34C13.944 27.3547 13.9293 27.362 13.9 27.362C13.8853 27.362 13.878 27.3547 13.878 27.34H13.856C13.812 27.34 13.79 27.362 13.79 27.406C13.7607 27.3767 13.7313 27.362 13.702 27.362L13.438 27.428C13.4087 27.428 13.394 27.4207 13.394 27.406L13.372 27.384C13.3573 27.384 13.328 27.3987 13.284 27.428C13.2547 27.4427 13.2327 27.45 13.218 27.45H13.174C13.174 27.4353 13.1667 27.428 13.152 27.428C13.108 27.428 13.0567 27.4353 12.998 27.45C12.9393 27.4647 12.8587 27.5087 12.756 27.582C12.712 27.538 12.6827 27.516 12.668 27.516C12.624 27.516 12.5727 27.5307 12.514 27.56C12.47 27.5893 12.4407 27.604 12.426 27.604H12.338C12.3087 27.5893 12.2793 27.582 12.25 27.582C12.2353 27.582 12.2133 27.5893 12.184 27.604C12.1547 27.6187 12.1327 27.626 12.118 27.626C12.1033 27.626 12.0887 27.6187 12.074 27.604C12.0593 27.5893 12.0373 27.582 12.008 27.582C11.9933 27.582 11.9787 27.5893 11.964 27.604C11.9493 27.6187 11.9347 27.626 11.92 27.626C11.9053 27.626 11.8907 27.6187 11.876 27.604C11.8613 27.5893 11.8393 27.582 11.81 27.582C11.766 27.582 11.722 27.5967 11.678 27.626C11.6487 27.6407 11.634 27.648 11.634 27.648H11.612C11.5533 27.648 11.5093 27.6113 11.48 27.538C11.3627 27.5673 11.282 27.5967 11.238 27.626C11.2527 27.6407 11.2527 27.648 11.238 27.648C11.2087 27.648 11.2087 27.6407 11.238 27.626C11.2233 27.6113 11.2087 27.5967 11.194 27.582C11.1793 27.626 11.15 27.648 11.106 27.648C11.0913 27.648 11.0767 27.648 11.062 27.648C11.0473 27.6333 11.0253 27.6187 10.996 27.604C10.9813 27.6187 10.974 27.67 10.974 27.758C10.9007 27.6847 10.8347 27.648 10.776 27.648C10.8053 27.648 10.7833 27.6627 10.71 27.692C10.666 27.6333 10.6293 27.604 10.6 27.604H10.468L10.402 27.648L10.182 27.604C10.138 27.604 10.116 27.6187 10.116 27.648L10.05 27.604C10.0207 27.6333 9.99133 27.648 9.962 27.648C9.962 27.648 9.91067 27.6187 9.808 27.56C9.764 27.604 9.742 27.648 9.742 27.692H9.676L9.632 27.648C9.61733 27.6627 9.61 27.6847 9.61 27.714L9.566 27.648C9.55133 27.648 9.544 27.6553 9.544 27.67C9.544 27.6407 9.51467 27.626 9.456 27.626C9.42667 27.626 9.40467 27.6333 9.39 27.648C9.39 27.6333 9.36067 27.604 9.302 27.56L9.236 27.604C9.20667 27.604 9.192 27.6187 9.192 27.648C9.07467 27.5747 9.00133 27.538 8.972 27.538C8.98667 27.538 8.95733 27.5527 8.884 27.582C8.84 27.538 8.78867 27.516 8.73 27.516C8.71533 27.516 8.67867 27.538 8.62 27.582C8.576 27.6113 8.53933 27.626 8.51 27.626C8.43667 27.626 8.37067 27.6113 8.312 27.582C8.268 27.5527 8.23867 27.538 8.224 27.538C8.25333 27.538 8.21667 27.5527 8.114 27.582C8.14333 27.5527 8.14333 27.5307 8.114 27.516C8.09933 27.516 8.092 27.5307 8.092 27.56H8.004L7.938 27.472L7.74 27.538L7.388 27.428C6.948 27.428 6.71333 27.4353 6.684 27.45C6.728 27.5087 6.794 27.5747 6.882 27.648V27.714C6.94067 27.7433 6.99933 27.7873 7.058 27.846C7.11667 27.9047 7.18267 27.9707 7.256 28.044C7.3 28.132 7.40267 28.2127 7.564 28.286C7.59333 28.3007 7.63733 28.308 7.696 28.308C7.72533 28.308 7.74733 28.3007 7.762 28.286H7.872V28.33C7.872 28.374 7.90133 28.418 7.96 28.462C8.03333 28.5207 8.07 28.5647 8.07 28.594C8.07 28.6233 8.06267 28.6453 8.048 28.66C8.25333 28.748 8.34867 28.792 8.334 28.792C8.34867 28.792 8.37067 28.7773 8.4 28.748C8.444 28.7333 8.47333 28.726 8.488 28.726C8.532 28.726 8.576 28.7847 8.62 28.902L8.686 28.836H8.752C8.752 28.8653 8.74467 28.8873 8.73 28.902C8.774 28.9167 8.81067 28.924 8.84 28.924C8.86933 28.924 8.972 28.9607 9.148 29.034C9.16267 29.034 9.18467 29.0193 9.214 28.99C9.24333 29.0487 9.27267 29.1 9.302 29.144C9.33133 29.2027 9.37533 29.232 9.434 29.232H9.478C9.478 29.2173 9.49267 29.21 9.522 29.21C9.53667 29.21 9.53667 29.2173 9.522 29.232C9.522 29.2467 9.52933 29.254 9.544 29.254C9.55867 29.254 9.57333 29.2393 9.588 29.21C9.60267 29.1953 9.61733 29.188 9.632 29.188C9.66133 29.188 9.698 29.2027 9.742 29.232C9.786 29.276 9.81533 29.3127 9.83 29.342C9.85933 29.298 9.88133 29.276 9.896 29.276C9.91067 29.276 9.94733 29.2907 10.006 29.32C10.0793 29.3493 10.1307 29.364 10.16 29.364C10.2187 29.364 10.2773 29.342 10.336 29.298C10.3947 29.386 10.4753 29.4593 10.578 29.518L10.622 29.562C10.6073 29.5767 10.6 29.628 10.6 29.716L10.71 29.672L10.732 29.76C10.732 29.8333 10.7027 29.87 10.644 29.87H10.6C10.6 29.8993 10.6147 29.914 10.644 29.914C10.6587 29.914 10.6807 29.914 10.71 29.914C10.7393 29.914 10.7687 29.9067 10.798 29.892H10.952C10.9813 29.892 10.996 29.8553 10.996 29.782H11.194C11.2087 29.782 11.2233 29.7673 11.238 29.738C11.2673 29.7233 11.2893 29.716 11.304 29.716L11.502 29.782L11.59 29.606C11.6487 29.6353 11.7073 29.65 11.766 29.65C11.8393 29.65 11.9567 29.672 12.118 29.716L12.162 29.782V29.716C12.206 29.7013 12.3087 29.694 12.47 29.694C12.4407 29.694 12.514 29.738 12.69 29.826C12.778 29.782 12.8147 29.7527 12.8 29.738H12.778C12.7927 29.738 12.8 29.738 12.8 29.738C12.8147 29.7527 12.8293 29.76 12.844 29.76C12.8587 29.7747 12.8733 29.782 12.888 29.782C12.9467 29.7233 12.9687 29.694 12.954 29.694C12.9687 29.694 12.9833 29.694 12.998 29.694C13.0127 29.7087 13.0347 29.7233 13.064 29.738C13.064 29.7527 13.0713 29.7747 13.086 29.804C13.1153 29.7747 13.152 29.76 13.196 29.76C13.2107 29.76 13.2107 29.7307 13.196 29.672C13.2253 29.672 13.262 29.6573 13.306 29.628C13.35 29.6133 13.3793 29.606 13.394 29.606C13.4087 29.606 13.4747 29.6353 13.592 29.694C13.7093 29.7527 13.7753 29.782 13.79 29.782H13.812C13.8707 29.7233 13.9 29.6793 13.9 29.65C13.9293 29.65 13.966 29.672 14.01 29.716C14.0833 29.6427 14.142 29.606 14.186 29.606C14.2007 29.606 14.2153 29.6133 14.23 29.628C14.2447 29.6427 14.2593 29.65 14.274 29.65C14.318 29.65 14.3913 29.5987 14.494 29.496H14.56C14.5747 29.5107 14.5893 29.518 14.604 29.518H14.648C14.6627 29.5767 14.6627 29.6573 14.648 29.76L14.714 29.848C14.7433 29.8187 14.7653 29.8187 14.78 29.848L14.824 29.782V29.672C14.824 29.672 14.8313 29.6573 14.846 29.628C14.8607 29.6133 14.8827 29.606 14.912 29.606C14.9267 29.606 14.9413 29.6133 14.956 29.628C14.9707 29.5987 14.9927 29.562 15.022 29.518C15.0513 29.474 15.0807 29.4227 15.11 29.364C15.11 29.3787 15.1247 29.386 15.154 29.386C15.2273 29.4007 15.2787 29.4227 15.308 29.452C15.3373 29.408 15.396 29.386 15.484 29.386L15.55 29.452L15.704 29.364V29.276L15.836 29.166C16.1 29.0487 16.2687 28.99 16.342 28.99L16.386 29.034C16.4007 29.034 16.408 29.012 16.408 28.968C16.4227 28.9827 16.4667 28.968 16.54 28.924C16.5987 28.9533 16.6207 28.9753 16.606 28.99C16.5913 29.0047 16.5987 29.012 16.628 29.012H16.782C16.8553 29.012 16.8993 29.012 16.914 29.012C16.9433 29.0267 16.9653 29.034 16.98 29.034C17.0093 29.034 17.0387 29.012 17.068 28.968C17.0973 28.9387 17.2073 28.858 17.398 28.726C17.5887 28.6087 17.7133 28.55 17.772 28.55C17.7573 28.5353 17.7573 28.506 17.772 28.462C17.772 28.4473 17.772 28.44 17.772 28.44V28.462C17.772 28.462 17.8087 28.462 17.882 28.462C17.926 28.462 17.9553 28.44 17.97 28.396L18.014 28.44L18.146 28.374C18.1753 28.3447 18.1607 28.2933 18.102 28.22V28.066L18.19 28.044C18.2193 28.044 18.2487 28.0513 18.278 28.066C18.322 28.0953 18.3513 28.11 18.366 28.11C18.4247 28.0807 18.52 28.0367 18.652 27.978C18.784 27.9193 18.8573 27.8607 18.872 27.802V27.78C18.872 27.736 18.8867 27.6773 18.916 27.604C18.96 27.5307 18.9967 27.494 19.026 27.494C19.0553 27.494 19.0773 27.5013 19.092 27.516H19.136C19.1653 27.516 19.2313 27.472 19.334 27.384C19.3487 27.3693 19.356 27.3473 19.356 27.318C19.356 27.2887 19.3633 27.252 19.378 27.208C19.378 27.208 19.4293 27.2447 19.532 27.318C19.5467 27.318 19.5613 27.3107 19.576 27.296C19.6053 27.2667 19.6347 27.252 19.664 27.252V26.944C19.6933 26.9293 19.7227 26.9147 19.752 26.9C19.796 26.8853 19.8473 26.8633 19.906 26.834C19.95 26.8047 19.994 26.7387 20.038 26.636H20.17C20.17 26.6067 20.1847 26.5553 20.214 26.482C20.1993 26.482 20.1993 26.4747 20.214 26.46V26.482C20.214 26.482 20.2287 26.482 20.258 26.482C20.214 26.482 20.236 26.4673 20.324 26.438C20.2947 26.3353 20.258 26.2767 20.214 26.262C20.2287 26.2473 20.236 26.2253 20.236 26.196H20.368C20.368 26.152 20.3533 26.1153 20.324 26.086C20.3533 26.042 20.4047 25.998 20.478 25.954C20.566 25.91 20.61 25.8587 20.61 25.8C20.61 25.7707 20.61 25.7413 20.61 25.712C20.61 25.668 20.5953 25.624 20.566 25.58C20.566 25.5507 20.5733 25.5213 20.588 25.492H20.61C20.7127 25.492 20.764 25.3673 20.764 25.118C20.764 24.942 20.7347 24.8027 20.676 24.7C20.676 24.6853 20.6833 24.6707 20.698 24.656C20.6833 24.6267 20.6467 24.5607 20.588 24.458C20.544 24.3553 20.4633 24.2307 20.346 24.084L20.148 23.82C19.9427 23.6147 19.8253 23.512 19.796 23.512C19.7667 23.512 19.7593 23.5193 19.774 23.534C19.774 23.5487 19.774 23.556 19.774 23.556C19.774 23.556 19.774 23.5487 19.774 23.534C19.73 23.4607 19.6787 23.424 19.62 23.424C19.6053 23.424 19.5907 23.4313 19.576 23.446C19.5613 23.3433 19.5247 23.292 19.466 23.292H19.444C19.444 23.3067 19.4367 23.314 19.422 23.314C19.4073 23.314 19.378 23.292 19.334 23.248C19.29 23.204 19.2607 23.182 19.246 23.182H19.224C19.224 23.1967 19.2167 23.204 19.202 23.204C19.246 23.204 19.2313 23.182 19.158 23.138C19.114 23.138 18.982 23.094 18.762 23.006C18.5567 22.918 18.4027 22.874 18.3 22.874C18.3 22.83 18.2853 22.808 18.256 22.808C18.2413 22.808 18.234 22.8153 18.234 22.83C18.234 22.8447 18.2267 22.852 18.212 22.852C18.1973 22.852 18.102 22.8153 17.926 22.742H17.816C17.8013 22.742 17.7867 22.742 17.772 22.742C17.7573 22.7273 17.7133 22.7127 17.64 22.698C17.6253 22.698 17.6107 22.7053 17.596 22.72L17.552 22.654C17.552 22.654 17.5373 22.6393 17.508 22.61C17.4787 22.6393 17.4493 22.654 17.42 22.654C17.3907 22.654 17.3247 22.632 17.222 22.588C17.134 22.544 17.0827 22.522 17.068 22.522C17.0387 22.522 17.002 22.5293 16.958 22.544H16.826C16.8113 22.544 16.7967 22.5367 16.782 22.522C16.7673 22.5073 16.7527 22.5 16.738 22.5C16.7087 22.5 16.6573 22.5 16.584 22.5C16.5253 22.5 16.452 22.4927 16.364 22.478L16.298 22.412H16.254L16.21 22.368L16.122 22.434C16.0487 22.3607 15.968 22.324 15.88 22.324H15.792C15.7627 22.3387 15.7333 22.346 15.704 22.346C15.6893 22.346 15.682 22.3387 15.682 22.324C15.6967 22.3093 15.6967 22.302 15.682 22.302C15.6673 22.302 15.6527 22.2947 15.638 22.28C15.638 22.2653 15.6307 22.258 15.616 22.258L15.462 22.302C15.4473 22.302 15.4107 22.2873 15.352 22.258C15.2933 22.214 15.2493 22.192 15.22 22.192H15.176C15.1613 22.192 15.11 22.1847 15.022 22.17C14.9487 22.1553 14.8387 22.1333 14.692 22.104L14.208 21.994L14.142 22.016C14.098 22.016 13.966 21.9647 13.746 21.862C13.5407 21.7593 13.4233 21.708 13.394 21.708H13.35C13.3353 21.7227 13.3207 21.73 13.306 21.73C13.2473 21.73 13.1593 21.6933 13.042 21.62V21.664C12.9687 21.6347 12.712 21.554 12.272 21.422C12.0373 21.3047 11.7073 21.1287 11.282 20.894C11.2087 20.806 11.1573 20.7107 11.128 20.608V20.432C11.0693 20.3 11.0033 20.212 10.93 20.168C10.9593 20.08 10.9447 20.0213 10.886 19.992C10.9153 19.9187 10.908 19.8453 10.864 19.772L10.93 19.31C10.9593 19.2807 10.9813 19.2293 10.996 19.156C11.0107 19.068 11.062 18.8993 11.15 18.65C11.1647 18.6207 11.172 18.5913 11.172 18.562C11.172 18.5327 11.1793 18.496 11.194 18.452C11.194 18.4667 11.2013 18.4813 11.216 18.496C11.2307 18.4813 11.2527 18.4447 11.282 18.386C11.3113 18.3127 11.37 18.254 11.458 18.21C11.458 18.1807 11.4727 18.1367 11.502 18.078C11.546 18.0193 11.6267 17.9093 11.744 17.748C11.8467 17.704 11.964 17.5867 12.096 17.396C12.228 17.2053 12.3453 17.0733 12.448 17L12.646 16.934L12.734 16.824L13.196 16.56C13.2253 16.5307 13.2913 16.5087 13.394 16.494L13.438 16.45C13.4967 16.45 13.526 16.428 13.526 16.384L13.57 16.428C13.57 16.4133 13.6507 16.3693 13.812 16.296L13.988 16.208C14.032 16.164 14.0907 16.1347 14.164 16.12C14.1933 16.1053 14.2227 16.098 14.252 16.098C14.2813 16.098 14.318 16.0907 14.362 16.076C14.3767 16.076 14.3913 16.0613 14.406 16.032C14.4353 16.0027 14.4573 15.988 14.472 15.988C14.4867 15.988 14.494 15.9953 14.494 16.01H14.516C14.5013 16.01 14.5453 15.9807 14.648 15.922C14.8533 15.7753 15.11 15.6947 15.418 15.68C15.4327 15.68 15.4547 15.6653 15.484 15.636C15.5133 15.6067 15.5353 15.592 15.55 15.592H15.594C15.6087 15.6067 15.6233 15.614 15.638 15.614C15.6673 15.614 15.6967 15.6067 15.726 15.592C15.7553 15.5627 15.7847 15.548 15.814 15.548C15.7553 15.548 15.8213 15.5187 16.012 15.46C16.2173 15.3867 16.4667 15.35 16.76 15.35C16.804 15.35 16.848 15.3427 16.892 15.328H17.046C17.0607 15.328 17.068 15.3207 17.068 15.306H17.09C17.1633 15.306 17.2367 15.2987 17.31 15.284C17.3833 15.2693 17.4273 15.2327 17.442 15.174L17.486 15.218C17.53 15.1447 17.5667 15.1447 17.596 15.218V15.174H17.706C17.7207 15.174 17.728 15.1813 17.728 15.196C17.7427 15.2107 17.7573 15.218 17.772 15.218C17.816 15.218 17.838 15.2033 17.838 15.174L17.926 15.24C18.0433 15.108 18.1313 15.042 18.19 15.042L18.344 15.086C18.3733 15.086 18.388 15.0787 18.388 15.064C18.388 15.0493 18.3953 15.042 18.41 15.042C18.4247 15.042 18.4687 15.0567 18.542 15.086C18.63 15.1153 18.6887 15.13 18.718 15.13C18.7327 15.13 18.762 15.1153 18.806 15.086C18.85 15.042 18.8793 15.02 18.894 15.02C18.9967 15.0347 19.07 15.0567 19.114 15.086C19.1727 15.1007 19.2607 15.13 19.378 15.174C19.4513 15.086 19.4953 15.042 19.51 15.042C19.5393 15.042 19.6127 15.0713 19.73 15.13L19.818 15.064C19.8033 15.0787 19.796 15.1007 19.796 15.13C19.8107 15.1447 19.8253 15.152 19.84 15.152H19.972C20.0013 15.152 20.0013 15.13 19.972 15.086C20.0307 15.1447 20.082 15.174 20.126 15.174C20.1407 15.174 20.148 15.1667 20.148 15.152H20.17C20.1553 15.152 20.1773 15.174 20.236 15.218C20.2213 15.218 20.2287 15.2253 20.258 15.24C20.2873 15.24 20.3313 15.2473 20.39 15.262C20.4193 15.2913 20.4413 15.35 20.456 15.438C20.4707 15.4233 20.478 15.4013 20.478 15.372C20.478 15.4013 20.4853 15.4233 20.5 15.438L20.962 15.636C20.962 15.724 21.028 15.812 21.16 15.9C21.1453 15.9587 21.182 16.0687 21.27 16.23C21.3727 16.3913 21.4093 16.5013 21.38 16.56C21.4387 16.6627 21.468 16.7507 21.468 16.824C21.468 16.9707 21.446 17.11 21.402 17.242C21.358 17.3007 21.3067 17.396 21.248 17.528C21.204 17.66 21.0867 17.8067 20.896 17.968C20.676 18.1587 20.544 18.3053 20.5 18.408L19.906 18.87C19.8767 18.8993 19.8547 18.9287 19.84 18.958C19.8253 18.9727 19.818 18.98 19.818 18.98C19.7887 18.98 19.774 18.9727 19.774 18.958C19.7887 18.9433 19.7813 18.936 19.752 18.936C19.7667 18.936 19.6787 18.9873 19.488 19.09L19.334 19.134C19.29 19.1633 19.2313 19.2073 19.158 19.266C19.0993 19.31 19.0187 19.3687 18.916 19.442C18.8573 19.4567 18.7913 19.486 18.718 19.53C18.6447 19.5593 18.5567 19.6033 18.454 19.662C18.454 19.618 18.432 19.596 18.388 19.596L18.806 19.244C18.8353 19.244 18.872 19.2367 18.916 19.222L19.312 18.87L19.488 18.782C19.5467 18.7673 19.576 18.7233 19.576 18.65H19.62C19.7813 18.65 19.906 18.5107 19.994 18.232C20.038 18.232 20.0673 18.2393 20.082 18.254C20.0967 18.21 20.126 18.166 20.17 18.122C20.214 18.078 20.2727 18.0193 20.346 17.946C20.434 17.8287 20.5293 17.6893 20.632 17.528C20.7347 17.352 20.8373 17.1687 20.94 16.978C20.94 16.978 20.9253 16.9487 20.896 16.89C20.9107 16.8607 20.94 16.824 20.984 16.78C21.028 16.7213 21.05 16.6847 21.05 16.67C21.05 16.67 21.0353 16.6407 21.006 16.582V16.274C21.006 16.1713 20.9547 16.0687 20.852 15.966C20.8227 15.9807 20.8007 15.988 20.786 15.988L20.808 15.9C20.808 15.856 20.7127 15.7827 20.522 15.68C20.2873 15.5333 20.1407 15.46 20.082 15.46H20.016C20.0013 15.4747 19.9793 15.482 19.95 15.482C19.9207 15.482 19.8693 15.4673 19.796 15.438C19.7373 15.4087 19.7007 15.394 19.686 15.394C19.6713 15.394 19.664 15.4013 19.664 15.416C19.664 15.4307 19.6567 15.438 19.642 15.438L19.158 15.328C19.1433 15.328 19.136 15.3353 19.136 15.35C19.136 15.3647 19.1287 15.372 19.114 15.372C19.0993 15.372 19.0773 15.3647 19.048 15.35C19.0187 15.3353 18.9893 15.328 18.96 15.328C18.9453 15.328 18.9307 15.3353 18.916 15.35C18.916 15.3647 18.9087 15.372 18.894 15.372C18.8793 15.372 18.872 15.3647 18.872 15.35H18.828C18.8133 15.35 18.806 15.3573 18.806 15.372C18.806 15.3867 18.7987 15.394 18.784 15.394C18.7693 15.394 18.7547 15.3867 18.74 15.372C18.74 15.3573 18.7327 15.35 18.718 15.35C18.7033 15.35 18.696 15.3573 18.696 15.372H18.718L18.366 15.438C18.3367 15.438 18.3 15.438 18.256 15.438C18.212 15.438 18.1607 15.4453 18.102 15.46L18.036 15.416C17.8013 15.504 17.6253 15.548 17.508 15.548C17.4787 15.548 17.464 15.5407 17.464 15.526H17.442C17.4127 15.526 17.31 15.5553 17.134 15.614C16.9727 15.6727 16.8847 15.702 16.87 15.702C16.8553 15.702 16.8553 15.6947 16.87 15.68C16.87 15.6653 16.8627 15.658 16.848 15.658C16.8627 15.658 16.87 15.658 16.87 15.658C16.87 15.6433 16.87 15.636 16.87 15.636C16.87 15.6213 16.8187 15.6287 16.716 15.658C16.6133 15.6873 16.5107 15.724 16.408 15.768C16.32 15.7973 16.2687 15.8267 16.254 15.856H16.232C16.232 15.8413 16.2247 15.834 16.21 15.834C16.122 15.834 16.0413 15.8927 15.968 16.01C15.968 15.9953 15.9753 15.9807 15.99 15.966L15.902 15.922L15.792 16.076L15.748 16.032C15.8067 16.032 15.682 16.0907 15.374 16.208C15.3593 16.2227 15.352 16.23 15.352 16.23C15.352 16.23 15.352 16.2373 15.352 16.252C15.3373 16.2373 15.3373 16.23 15.352 16.23C15.3373 16.23 15.33 16.23 15.33 16.23C15.33 16.2447 15.22 16.296 15 16.384L14.758 16.472L14.604 16.582L13.35 17.506C13.2033 17.6087 13.0933 17.726 13.02 17.858C12.9613 17.9753 12.888 18.1073 12.8 18.254L12.734 18.21C12.7193 18.2833 12.646 18.3567 12.514 18.43C12.5287 18.4153 12.536 18.452 12.536 18.54C12.536 18.5693 12.492 18.6207 12.404 18.694V18.76C12.404 18.848 12.4113 18.9213 12.426 18.98C12.4113 19.024 12.3967 19.0827 12.382 19.156C12.382 19.2147 12.3527 19.3247 12.294 19.486C12.294 19.5007 12.294 19.5227 12.294 19.552C12.294 19.5813 12.3013 19.6107 12.316 19.64C12.3013 19.6987 12.2867 19.7427 12.272 19.772C12.272 19.7867 12.272 19.7867 12.272 19.772C12.272 19.904 12.2793 19.9553 12.294 19.926C12.4553 19.9847 12.5213 20.1167 12.492 20.322C12.5653 20.3953 12.602 20.432 12.602 20.432C12.6167 20.432 12.624 20.4247 12.624 20.41H12.646C12.6753 20.41 12.712 20.432 12.756 20.476C12.8 20.52 12.8587 20.542 12.932 20.542C12.9173 20.5567 12.9247 20.608 12.954 20.696C12.998 20.784 13.0347 20.828 13.064 20.828C13.0787 20.828 13.086 20.8207 13.086 20.806H13.108C13.1227 20.806 13.1887 20.85 13.306 20.938C13.4233 21.026 13.4893 21.07 13.504 21.07H13.526C13.526 21.0553 13.5333 21.048 13.548 21.048C13.5627 21.048 13.6433 21.1067 13.79 21.224C13.9513 21.3267 14.0467 21.378 14.076 21.378C14.0907 21.378 14.186 21.3413 14.362 21.268L14.626 21.554C14.6407 21.5393 14.648 21.5173 14.648 21.488C14.7653 21.62 14.8753 21.686 14.978 21.686C15.0073 21.686 15.0367 21.7007 15.066 21.73L15.11 21.664C15.11 21.6933 15.1247 21.708 15.154 21.708C15.1687 21.708 15.176 21.7007 15.176 21.686H15.198C15.3887 21.8033 15.4913 21.862 15.506 21.862C15.5207 21.862 15.5427 21.8547 15.572 21.84C15.6013 21.8253 15.6233 21.818 15.638 21.818C15.6673 21.818 15.7187 21.8547 15.792 21.928C15.8067 21.9133 15.814 21.8987 15.814 21.884C15.8873 21.9573 16.012 21.994 16.188 21.994C16.32 22.082 16.43 22.126 16.518 22.126C16.606 22.126 16.6573 22.1333 16.672 22.148L16.826 22.214C16.8407 22.214 16.8773 22.2067 16.936 22.192C16.9947 22.1773 17.0387 22.17 17.068 22.17C17.2293 22.1993 17.3393 22.2287 17.398 22.258C17.4567 22.2727 17.464 22.28 17.42 22.28C17.4347 22.28 17.4493 22.2727 17.464 22.258L17.508 22.302L17.706 22.434C17.7353 22.434 17.7573 22.456 17.772 22.5L17.882 22.412C17.926 22.456 17.9333 22.478 17.904 22.478L17.86 22.522L17.948 22.588C18.0213 22.5293 18.0947 22.5 18.168 22.5C18.1533 22.5 18.146 22.5 18.146 22.5C18.1607 22.5 18.1753 22.5 18.19 22.5H18.168C18.1093 22.5 18.1533 22.522 18.3 22.566C18.388 22.5953 18.4393 22.6247 18.454 22.654H18.696C18.7253 22.742 18.7693 22.786 18.828 22.786C18.8573 22.786 18.8647 22.7787 18.85 22.764C18.85 22.7493 18.8573 22.742 18.872 22.742C18.9013 22.742 18.96 22.764 19.048 22.808C19.0627 22.808 19.0847 22.83 19.114 22.874C19.1433 22.918 19.1727 22.94 19.202 22.94C19.2167 22.94 19.224 22.9327 19.224 22.918H19.246C19.2753 22.918 19.3193 22.9693 19.378 23.072C19.3927 23.0573 19.4 23.0427 19.4 23.028L19.598 23.16C19.6127 23.16 19.6347 23.16 19.664 23.16C19.6933 23.16 19.73 23.1673 19.774 23.182C19.7887 23.1967 19.8107 23.2333 19.84 23.292C19.884 23.336 19.9207 23.358 19.95 23.358C19.9647 23.358 19.972 23.3507 19.972 23.336H19.994C20.0087 23.336 20.0233 23.358 20.038 23.402C20.0527 23.4313 20.0747 23.446 20.104 23.446C20.1333 23.4313 20.1553 23.424 20.17 23.424C20.17 23.4387 20.2287 23.5047 20.346 23.622C20.3313 23.622 20.39 23.71 20.522 23.886C20.5953 23.9593 20.654 24.0107 20.698 24.04C20.7567 24.0547 20.8373 24.128 20.94 24.26C20.9253 24.2747 20.918 24.3187 20.918 24.392L21.116 24.568C21.116 24.5827 21.1527 24.6853 21.226 24.876C21.2993 25.052 21.336 25.228 21.336 25.404C21.336 25.5067 21.3213 25.6093 21.292 25.712C21.2773 25.8147 21.2553 25.9247 21.226 26.042C21.1967 26.174 21.1893 26.2473 21.204 26.262C21.16 26.2767 21.1087 26.3647 21.05 26.526C20.9913 26.702 20.8887 26.9 20.742 27.12C20.7273 27.1347 20.6833 27.186 20.61 27.274C20.5513 27.3473 20.456 27.4573 20.324 27.604L20.258 27.78C20.2287 27.824 20.1847 27.8753 20.126 27.934C20.0673 27.9927 20.0013 28.0587 19.928 28.132L19.664 28.286C19.4147 28.462 19.29 28.572 19.29 28.616V28.594H19.268C19.2973 28.594 19.2607 28.6233 19.158 28.682C19.158 28.6967 19.1433 28.7187 19.114 28.748C19.0993 28.792 19.0553 28.8433 18.982 28.902C18.9527 28.902 18.894 28.9167 18.806 28.946C18.7767 28.9753 18.7327 29.012 18.674 29.056C18.6153 29.1147 18.5493 29.1733 18.476 29.232L18.256 29.298C18.256 29.298 18.2193 29.3347 18.146 29.408C18.0873 29.4813 18.0287 29.518 17.97 29.518C17.9847 29.518 17.9773 29.5033 17.948 29.474H17.926C17.9113 29.474 17.904 29.5033 17.904 29.562H17.86C17.8747 29.562 17.8307 29.5913 17.728 29.65C17.6693 29.694 17.5813 29.738 17.464 29.782C17.3467 29.826 17.222 29.8993 17.09 30.002C17.0167 30.002 16.9727 30.0093 16.958 30.024L16.914 29.98C16.8993 30.0387 16.8553 30.068 16.782 30.068C16.7673 30.068 16.76 30.0607 16.76 30.046H16.738C16.7233 30.046 16.6867 30.068 16.628 30.112C16.584 30.1707 16.5547 30.2 16.54 30.2L16.32 30.156C16.32 30.156 16.2833 30.2 16.21 30.288C16.1367 30.376 16.0487 30.42 15.946 30.42C15.9313 30.42 15.924 30.4127 15.924 30.398L15.902 30.376C15.8727 30.376 15.8507 30.3833 15.836 30.398C15.8213 30.4273 15.8067 30.442 15.792 30.442H15.77C15.77 30.4273 15.7627 30.42 15.748 30.42C15.7333 30.42 15.704 30.4347 15.66 30.464C15.616 30.4933 15.5793 30.508 15.55 30.508H15.506C15.4913 30.4933 15.4767 30.486 15.462 30.486C15.4033 30.486 15.2713 30.5447 15.066 30.662L14.978 30.53C14.934 30.6327 14.8753 30.684 14.802 30.684C14.7727 30.684 14.736 30.662 14.692 30.618H14.648C14.6187 30.618 14.604 30.6253 14.604 30.64C14.6187 30.6547 14.6187 30.662 14.604 30.662H14.582C14.582 30.6473 14.5747 30.64 14.56 30.64C14.5453 30.64 14.4867 30.6693 14.384 30.728C14.2813 30.7867 14.208 30.816 14.164 30.816C14.164 30.7867 14.1347 30.7647 14.076 30.75C14.032 30.7353 13.9733 30.706 13.9 30.662L13.812 30.772H13.79L13.746 30.816C13.6433 30.8013 13.5407 30.75 13.438 30.662V30.706H13.306C13.262 30.6913 13.2253 30.684 13.196 30.684C13.1813 30.684 13.1373 30.7133 13.064 30.772C13.0053 30.8453 12.9613 30.882 12.932 30.882ZM16.232 26.702C16.188 26.7313 16.1513 26.7093 16.122 26.636L16.144 26.46H16.276C16.276 26.4893 16.2687 26.526 16.254 26.57C16.254 26.5993 16.2467 26.6433 16.232 26.702ZM7.762 28.55H7.806V28.462H7.762V28.55ZM22.3647 35.612C22.2473 35.612 21.998 35.4727 21.6167 35.194C21.5287 35.1207 21.4553 35.0327 21.3967 34.93C21.3233 34.8273 21.2647 34.776 21.2207 34.776C21.1327 34.468 21.0227 34.314 20.8907 34.314C20.92 34.2847 20.9347 34.2553 20.9347 34.226C20.9347 34.1967 20.8687 34.0207 20.7367 33.698V33.61C20.722 33.5807 20.7073 33.5367 20.6927 33.478C20.678 33.4193 20.656 33.3533 20.6267 33.28C20.6413 33.2653 20.6487 33.2213 20.6487 33.148C20.634 33.1627 20.6267 33.1407 20.6267 33.082C20.656 33.0527 20.6707 33.016 20.6707 32.972L20.6267 32.906C20.6267 32.906 20.6413 32.8767 20.6707 32.818C20.6853 32.642 20.7073 32.422 20.7367 32.158C20.766 31.9087 20.7807 31.7327 20.7807 31.63V31.454C20.7807 31.3807 20.788 31.3073 20.8027 31.234C20.8027 31.1753 20.81 31.1167 20.8247 31.058L21.0007 30.794C21.0153 30.7207 21.0373 30.64 21.0667 30.552C21.096 30.464 21.1253 30.3613 21.1547 30.244C21.228 30.0827 21.3747 29.892 21.5947 29.672C21.5947 29.6427 21.602 29.606 21.6167 29.562C21.6167 29.5327 21.624 29.496 21.6387 29.452C21.668 29.408 21.7047 29.3347 21.7487 29.232C21.8073 29.144 21.8807 28.99 21.9687 28.77C21.998 28.7553 22.042 28.6307 22.1007 28.396C22.1153 28.4107 22.1447 28.418 22.1887 28.418C22.262 28.418 22.3207 28.352 22.3647 28.22L22.4527 28.176C22.5407 28.0147 22.6287 27.8167 22.7167 27.582C22.746 27.582 22.7827 27.5013 22.8267 27.34C22.9293 27.2667 23.0687 27.1127 23.2447 26.878L23.2887 26.724C23.362 26.6653 23.45 26.5993 23.5527 26.526C23.6553 26.438 23.7653 26.3427 23.8827 26.24L23.9487 26.108C23.9487 26.0933 23.978 26.064 24.0367 26.02C24.0953 25.976 24.1173 25.932 24.1027 25.888C24.176 25.844 24.242 25.778 24.3007 25.69H24.3887L25.1147 24.92C25.144 24.8613 25.1953 24.7733 25.2687 24.656C25.3567 24.5387 25.452 24.4433 25.5547 24.37C25.628 24.3407 25.7307 24.2747 25.8627 24.172C25.892 24.1427 25.9067 24.128 25.9067 24.128H25.9287C25.9287 24.1427 25.936 24.15 25.9507 24.15C25.9653 24.15 26.002 24.1133 26.0607 24.04C26.1193 23.952 26.1853 23.8933 26.2587 23.864L26.3907 23.71C26.4933 23.6807 26.5887 23.6367 26.6767 23.578L26.9407 23.314L27.3367 23.094C27.4393 23.0353 27.6153 22.896 27.8647 22.676C27.8793 22.6613 27.9087 22.654 27.9527 22.654C27.9967 22.5953 28.0627 22.544 28.1507 22.5C28.2387 22.456 28.3267 22.3973 28.4147 22.324C28.708 22.2067 29.0013 22.016 29.2947 21.752C29.3973 21.7373 29.544 21.6787 29.7347 21.576L30.0867 21.268L30.3067 21.202L30.3727 21.114C30.446 21.0847 30.5487 21.048 30.6807 21.004C30.8127 20.9453 30.9593 20.8867 31.1207 20.828C31.194 20.784 31.216 20.762 31.1867 20.762C31.216 20.762 31.2307 20.7693 31.2307 20.784H31.2527C31.282 20.784 31.3113 20.7473 31.3407 20.674C31.4873 20.6593 31.678 20.586 31.9127 20.454C31.9567 20.454 32.0227 20.4393 32.1107 20.41C32.2133 20.3807 32.272 20.366 32.2867 20.366C32.316 20.366 32.3307 20.3733 32.3307 20.388H32.3527C32.3673 20.388 32.4407 20.344 32.5727 20.256C32.7047 20.168 32.7853 20.124 32.8147 20.124L33.2547 20.168C33.284 20.168 33.3207 20.1533 33.3647 20.124C33.4087 20.08 33.5187 20.0287 33.6947 19.97L35.1027 19.816L35.1687 19.86H35.3887L35.6527 19.816C35.6673 19.816 35.6893 19.8307 35.7187 19.86C35.748 19.8893 35.7773 19.904 35.8067 19.904C35.836 19.904 35.8507 19.882 35.8507 19.838C35.9387 19.8527 36.0633 19.882 36.2247 19.926C36.4007 19.9553 36.4447 19.97 36.3567 19.97C36.386 19.97 36.4007 19.9627 36.4007 19.948H36.4227C36.408 19.948 36.4593 19.9773 36.5767 20.036C36.6353 20.0653 36.716 20.08 36.8187 20.08C36.848 20.08 36.8773 20.0653 36.9067 20.036L37.0387 19.684L37.1047 19.596C37.1487 19.5373 37.178 19.4713 37.1927 19.398C37.222 19.31 37.244 19.2293 37.2587 19.156L37.4347 18.936C37.4347 18.9067 37.4347 18.8627 37.4347 18.804C37.4347 18.7453 37.442 18.6867 37.4567 18.628L37.6547 18.188C37.64 18.1587 37.6327 18.1 37.6327 18.012C37.662 17.9827 37.6767 17.924 37.6767 17.836C37.7207 17.792 37.816 17.5207 37.9627 17.022L38.1387 16.758C38.1387 16.7287 38.1387 16.692 38.1387 16.648C38.1387 16.604 38.146 16.5527 38.1607 16.494C38.2193 16.318 38.2487 16.2373 38.2487 16.252V16.142C38.234 16.098 38.2267 16.054 38.2267 16.01C38.168 15.9953 38.1093 15.988 38.0507 15.988C38.0067 15.9733 37.97 15.966 37.9407 15.966C37.926 15.966 37.8673 15.988 37.7647 16.032C37.6767 16.076 37.6253 16.098 37.6107 16.098C37.5813 16.098 37.5593 16.0907 37.5447 16.076H37.4787C37.4493 16.076 37.4127 16.0907 37.3687 16.12C37.3247 16.1347 37.288 16.142 37.2587 16.142C37.244 16.142 37.2073 16.1273 37.1487 16.098C37.1047 16.0687 37.0607 16.054 37.0167 16.054C36.958 16.0393 36.8773 16.032 36.7747 16.032C36.672 16.0173 36.562 16.01 36.4447 16.01C36.43 16.01 36.4153 16.0247 36.4007 16.054C36.386 16.0833 36.364 16.098 36.3347 16.098L36.0487 16.032C36.0193 16.032 35.99 16.0467 35.9607 16.076C35.9313 16.0907 35.9093 16.098 35.8947 16.098C35.8653 16.098 35.8433 16.0907 35.8287 16.076H35.7627C35.748 16.076 35.726 16.0907 35.6967 16.12C35.6673 16.1347 35.6453 16.142 35.6307 16.142C35.6453 16.142 35.6453 16.142 35.6307 16.142C35.616 16.142 35.594 16.142 35.5647 16.142C35.55 16.1273 35.5207 16.12 35.4767 16.12C35.462 16.1053 35.4547 16.0907 35.4547 16.076C35.4547 16.0467 35.4473 16.0247 35.4327 16.01C35.4033 16.0393 35.374 16.0613 35.3447 16.076C35.33 16.0907 35.3227 16.098 35.3227 16.098H34.9487C34.8313 16.098 34.7433 16.1053 34.6847 16.12C34.626 16.12 34.5893 16.12 34.5747 16.12L34.1347 16.01C34.12 16.01 34.1053 16.0247 34.0907 16.054C34.0907 16.0687 34.076 16.076 34.0467 16.076L33.5407 15.966C33.526 15.966 33.5113 15.9733 33.4967 15.988H33.4527C33.4233 15.988 33.3133 15.9733 33.1227 15.944C32.932 15.9 32.822 15.878 32.7927 15.878C32.778 15.878 32.756 15.8853 32.7267 15.9C32.712 15.9147 32.69 15.922 32.6607 15.922C32.646 15.922 32.624 15.9 32.5947 15.856C32.5653 15.812 32.5213 15.79 32.4627 15.79C32.3893 15.79 32.3527 15.8047 32.3527 15.834L32.2647 15.702C32.2353 15.702 32.1987 15.702 32.1547 15.702C32.1107 15.702 32.0593 15.6947 32.0007 15.68C31.986 15.6507 31.9567 15.6287 31.9127 15.614C31.8687 15.5993 31.766 15.592 31.6047 15.592C31.5607 15.592 31.546 15.5993 31.5607 15.614C31.546 15.5993 31.5313 15.5847 31.5167 15.57C31.502 15.5553 31.48 15.5333 31.4507 15.504C31.04 15.372 30.8567 15.306 30.9007 15.306H30.8567C30.8567 15.3207 30.842 15.328 30.8127 15.328C30.798 15.328 30.6367 15.196 30.3287 14.932V14.866C30.3287 14.8513 30.336 14.8147 30.3507 14.756C30.3653 14.6827 30.3727 14.624 30.3727 14.58C30.49 14.4773 30.5413 14.404 30.5267 14.36C30.5413 14.36 30.5633 14.3673 30.5927 14.382C30.6367 14.3967 30.6733 14.404 30.7027 14.404C30.7173 14.404 30.7393 14.3967 30.7687 14.382C30.8127 14.3527 30.8493 14.338 30.8787 14.338L32.5507 14.8C32.5947 14.8 32.624 14.7927 32.6387 14.778C32.712 14.866 32.778 14.91 32.8367 14.91C32.8513 14.91 32.8587 14.9027 32.8587 14.888C32.8587 14.8733 32.8733 14.866 32.9027 14.866C32.9173 14.866 32.9687 14.888 33.0567 14.932C33.1447 14.9613 33.196 14.9833 33.2107 14.998L34.1127 15.152C34.1127 15.196 34.12 15.2253 34.1347 15.24L34.0027 15.306V15.196C33.9147 15.1667 33.8633 15.152 33.8487 15.152C33.878 15.152 33.812 15.174 33.6507 15.218C33.636 15.2033 33.592 15.196 33.5187 15.196C33.4893 15.2253 33.4747 15.2473 33.4747 15.262C33.4747 15.2767 33.504 15.3133 33.5627 15.372C33.636 15.416 33.6947 15.4307 33.7387 15.416L34.0467 15.372C34.0613 15.372 34.0833 15.3867 34.1127 15.416C34.1567 15.4307 34.1933 15.438 34.2227 15.438H34.2447C34.2447 15.4233 34.252 15.416 34.2667 15.416C34.34 15.416 34.45 15.482 34.5967 15.614L34.7067 15.746C34.7947 15.746 34.868 15.7533 34.9267 15.768C34.956 15.7093 34.978 15.6507 34.9927 15.592C35.022 15.5333 35.0733 15.504 35.1467 15.504C35.176 15.504 35.242 15.526 35.3447 15.57C35.462 15.614 35.528 15.636 35.5427 15.636H35.6527C35.6967 15.6213 35.7407 15.614 35.7847 15.614C35.8873 15.614 35.946 15.6213 35.9607 15.636C36.078 15.7093 36.1513 15.746 36.1807 15.746C36.1953 15.746 36.2247 15.7387 36.2687 15.724C36.3127 15.7093 36.3493 15.702 36.3787 15.702C36.4667 15.702 36.518 15.724 36.5327 15.768H36.5987C36.6133 15.7093 36.6573 15.68 36.7307 15.68C36.76 15.68 36.7893 15.6947 36.8187 15.724C36.8627 15.7387 36.8993 15.746 36.9287 15.746L38.3807 15.592C38.4833 15.3573 38.5127 15.1153 38.4687 14.866C38.5273 14.734 38.5567 14.6313 38.5567 14.558C38.5567 14.5873 38.5347 14.5507 38.4907 14.448C38.476 14.4187 38.4613 14.3893 38.4467 14.36C38.4467 14.316 38.4467 14.2647 38.4467 14.206C38.4467 14.1473 38.4687 14.0887 38.5127 14.03H38.6227C38.696 14.206 38.7547 14.3087 38.7987 14.338L38.7547 14.426L38.7987 14.888C38.8133 14.9907 38.8207 15.086 38.8207 15.174C38.8353 15.2473 38.8427 15.3207 38.8427 15.394L38.7987 15.504C39.136 15.46 39.3267 15.438 39.3707 15.438C39.6347 15.438 39.84 15.372 39.9867 15.24C40.0013 15.2987 40.0307 15.328 40.0747 15.328C40.0307 15.328 40.302 15.24 40.8887 15.064C40.9327 15.0493 41.0133 15.042 41.1307 15.042C41.0867 15.0567 40.9987 15.13 40.8667 15.262C40.7493 15.2767 40.676 15.3133 40.6467 15.372C40.632 15.3573 40.61 15.35 40.5807 15.35C40.566 15.35 40.5 15.3793 40.3827 15.438C40.2653 15.482 40.192 15.504 40.1627 15.504C40.148 15.504 40.1333 15.4967 40.1187 15.482H40.0747C40.06 15.482 40.016 15.4967 39.9427 15.526C39.884 15.5407 39.8473 15.5627 39.8327 15.592C39.774 15.592 39.642 15.636 39.4367 15.724C39.4073 15.724 39.3927 15.7167 39.3927 15.702H39.3487C39.334 15.702 39.29 15.724 39.2167 15.768C39.158 15.7973 39.1213 15.812 39.1067 15.812H39.0627C39.0627 15.7973 39.048 15.79 39.0187 15.79C38.9747 15.79 38.9013 15.8193 38.7987 15.878C38.784 15.8927 38.7767 15.9073 38.7767 15.922C38.8353 15.9367 38.8573 15.966 38.8427 16.01V16.186C38.8427 16.2007 38.828 16.23 38.7987 16.274C38.7693 16.3033 38.7547 16.3327 38.7547 16.362C38.7547 16.3913 38.7473 16.4353 38.7327 16.494C38.7327 16.538 38.7253 16.5967 38.7107 16.67C38.7547 16.7287 38.7767 16.8313 38.7767 16.978C38.7473 17.022 38.7107 17.0733 38.6667 17.132C38.6227 17.1907 38.586 17.2567 38.5567 17.33C38.586 17.4327 38.586 17.6307 38.5567 17.924C38.4393 18.3053 38.344 18.584 38.2707 18.76C38.212 18.9213 38.1827 18.9873 38.1827 18.958C38.1093 19.0753 38.102 19.1413 38.1607 19.156C38.1607 19.1707 38.1387 19.2147 38.0947 19.288C38.0507 19.3467 38.0213 19.4127 38.0067 19.486C38.0507 19.486 38.0947 19.508 38.1387 19.552C38.0947 19.8307 38.0653 19.9627 38.0507 19.948C38.0213 20.0507 37.9627 20.1387 37.8747 20.212C37.8013 20.2853 37.7647 20.3587 37.7647 20.432C37.838 20.4467 37.948 20.5127 38.0947 20.63L38.2487 20.85C38.3807 21.158 38.4467 21.3193 38.4467 21.334C38.4467 21.3487 38.4393 21.378 38.4247 21.422L38.3147 21.466C38.2853 21.466 38.08 21.1873 37.6987 20.63L37.6767 20.652C37.662 20.7107 37.6327 20.7913 37.5887 20.894C37.5593 20.9967 37.53 21.114 37.5007 21.246C37.442 21.5687 37.354 21.7887 37.2367 21.906C37.134 22.0087 37.068 22.2507 37.0387 22.632C37.0093 22.6907 36.98 22.7567 36.9507 22.83C36.9213 22.8887 36.892 22.9547 36.8627 23.028C36.8333 23.0573 36.7893 23.16 36.7307 23.336C36.496 23.6147 36.386 23.7833 36.4007 23.842C36.2687 23.93 36.2027 24.0547 36.2027 24.216C36.188 24.216 36.1733 24.2233 36.1587 24.238L36.0047 24.524C36.0047 24.524 36.0047 24.5387 36.0047 24.568C36.0047 24.5973 36.012 24.6413 36.0267 24.7V24.722C36.0267 24.7367 36.0267 24.766 36.0267 24.81C36.0267 24.8393 36.0193 24.8833 36.0047 24.942C35.946 24.9713 35.9093 25.008 35.8947 25.052C35.88 25.0813 35.858 25.1327 35.8287 25.206C35.77 25.3087 35.6673 25.426 35.5207 25.558C35.5207 25.646 35.55 25.7413 35.6087 25.844C35.594 25.844 35.55 25.9027 35.4767 26.02C35.2567 26.0347 35.1467 26.1373 35.1467 26.328C35.1467 26.3867 35.154 26.4307 35.1687 26.46H35.1247C35.066 26.46 35.0073 26.504 34.9487 26.592C34.9047 26.68 34.824 26.7827 34.7067 26.9C34.692 26.9733 34.6187 27.1127 34.4867 27.318C34.4573 27.318 34.406 27.3473 34.3327 27.406C34.3327 27.4353 34.3033 27.516 34.2447 27.648C34.186 27.7653 34.1713 27.8607 34.2007 27.934C34.186 27.9487 34.164 27.9707 34.1347 28C34.12 28.0147 34.0833 28.0367 34.0247 28.066C34.0247 28.0807 34.01 28.132 33.9807 28.22L33.8047 28.418C33.7313 28.4473 33.6507 28.484 33.5627 28.528C33.4747 28.572 33.394 28.6307 33.3207 28.704L33.4747 28.77C33.4453 28.8287 33.4013 28.9093 33.3427 29.012C33.284 29.1293 33.1593 29.2613 32.9687 29.408C32.954 29.4667 32.9247 29.518 32.8807 29.562C32.8513 29.6207 32.8147 29.694 32.7707 29.782C32.6973 29.826 32.602 29.936 32.4847 30.112C32.338 30.156 32.2133 30.244 32.1107 30.376C31.964 30.5373 31.876 30.64 31.8467 30.684C31.8173 30.7427 31.8027 30.772 31.8027 30.772C31.8027 30.7867 31.788 30.8013 31.7587 30.816C31.744 30.8453 31.5973 30.9993 31.3187 31.278C31.2893 31.278 31.26 31.2853 31.2307 31.3C31.2013 31.3147 31.15 31.366 31.0767 31.454C31.018 31.5567 30.974 31.608 30.9447 31.608C30.9153 31.608 30.886 31.6227 30.8567 31.652C30.8127 31.7107 30.7467 31.7767 30.6587 31.85C30.5853 31.9233 30.49 31.982 30.3727 32.026C30.358 32.0553 30.3287 32.0847 30.2847 32.114C30.2407 32.158 30.1967 32.1947 30.1527 32.224C30.0207 32.3267 29.8227 32.5247 29.5587 32.818C29.4853 32.818 29.4413 32.8253 29.4267 32.84L28.4587 33.5C28.18 33.7493 28.0333 33.874 28.0187 33.874C28.004 33.874 27.9893 33.8667 27.9747 33.852C27.9747 33.8373 27.9673 33.83 27.9527 33.83C27.894 33.83 27.85 33.8447 27.8207 33.874C27.7913 33.918 27.762 33.9547 27.7327 33.984C27.498 34.1013 27.3733 34.182 27.3587 34.226C27.3587 34.1967 27.3367 34.182 27.2927 34.182C27.2927 34.182 27.212 34.2333 27.0507 34.336C26.904 34.3653 26.7133 34.4313 26.4787 34.534C26.332 34.622 26.266 34.666 26.2807 34.666C26.266 34.666 26.2587 34.6587 26.2587 34.644H26.2147C26.2147 34.644 26.1707 34.666 26.0827 34.71C26.0093 34.754 25.892 34.7907 25.7307 34.82L25.4447 34.886C25.43 34.8713 25.3713 34.864 25.2687 34.864C25.2687 34.8787 25.2613 34.8933 25.2467 34.908H25.2027C25.188 34.908 25.1293 34.908 25.0267 34.908C24.9387 34.9227 24.792 34.93 24.5867 34.93H23.9487C23.934 34.93 23.9047 34.9153 23.8607 34.886C23.8167 34.8567 23.7873 34.842 23.7727 34.842C23.758 34.842 23.7213 34.8567 23.6627 34.886C23.3987 34.6367 23.2007 34.4827 23.0687 34.424C22.9953 34.3507 22.9513 34.292 22.9367 34.248L23.2447 34.314C23.6407 34.4607 23.824 34.534 23.7947 34.534C23.8093 34.534 23.824 34.5267 23.8387 34.512H23.8827C23.8973 34.512 23.912 34.5193 23.9267 34.534C23.956 34.5633 23.978 34.578 23.9927 34.578H24.2787C24.2787 34.578 24.286 34.578 24.3007 34.578C24.33 34.5927 24.3667 34.6073 24.4107 34.622C24.4107 34.6367 24.4767 34.644 24.6087 34.644C24.7407 34.644 24.8067 34.6367 24.8067 34.622C24.924 34.5633 24.9753 34.534 24.9607 34.534C24.99 34.534 25.0047 34.5413 25.0047 34.556H25.0487C25.1073 34.556 25.166 34.5487 25.2247 34.534C25.298 34.534 25.3713 34.5267 25.4447 34.512C25.4593 34.4973 25.4887 34.4753 25.5327 34.446C25.5913 34.4167 25.628 34.402 25.6427 34.402C25.672 34.402 25.6867 34.4093 25.6867 34.424C25.6867 34.4387 25.7013 34.446 25.7307 34.446C25.8773 34.446 25.9507 34.3873 25.9507 34.27L26.0387 34.292C26.024 34.292 26.0607 34.27 26.1487 34.226C26.2513 34.1967 26.3833 34.138 26.5447 34.05C26.574 34.0207 26.6107 33.984 26.6547 33.94C26.7133 33.896 26.8673 33.8227 27.1167 33.72L27.2487 33.522H27.3147C27.476 33.522 27.5933 33.4413 27.6667 33.28L27.9307 33.148C27.9307 33.1187 27.9453 33.082 27.9747 33.038C28.0187 32.994 28.0847 32.972 28.1727 32.972C28.202 32.8987 28.29 32.84 28.4367 32.796C28.4513 32.7813 28.466 32.752 28.4807 32.708C28.4953 32.664 28.532 32.62 28.5907 32.576C28.6053 32.5613 28.6127 32.5173 28.6127 32.444L28.7007 32.466C28.73 32.466 28.774 32.422 28.8327 32.334C28.8327 32.3047 28.8327 32.2753 28.8327 32.246C28.8327 32.2167 28.84 32.18 28.8547 32.136C28.9573 32.0333 29.0453 31.9893 29.1187 32.004L29.2067 32.026L29.2947 31.85C29.3387 31.7473 29.3313 31.6667 29.2727 31.608L29.5147 31.41C29.544 31.41 29.5733 31.4027 29.6027 31.388C29.632 31.388 29.6687 31.3807 29.7127 31.366C29.7127 31.366 29.7127 31.3587 29.7127 31.344C29.7127 31.344 29.72 31.3367 29.7347 31.322C29.896 31.234 29.984 31.1973 29.9987 31.212C30.028 31.1533 30.0353 31.0873 30.0207 31.014C30.094 30.882 30.1527 30.816 30.1967 30.816H30.2187C30.204 30.8307 30.2113 30.838 30.2407 30.838C30.2113 30.838 30.2627 30.794 30.3947 30.706C30.424 30.6767 30.424 30.6473 30.3947 30.618C30.5413 30.5447 30.6293 30.4713 30.6587 30.398C30.7027 30.3393 30.7833 30.2293 30.9007 30.068C30.93 30.068 30.952 30.0607 30.9667 30.046L31.1427 29.694C31.216 29.65 31.2967 29.5693 31.3847 29.452C31.4727 29.408 31.524 29.3347 31.5387 29.232C31.568 29.1293 31.59 29.034 31.6047 28.946C31.634 28.9313 31.6633 28.9167 31.6927 28.902C31.7367 28.8873 31.788 28.8653 31.8467 28.836C31.876 28.8067 31.92 28.7113 31.9787 28.55H32.0007C32.0593 28.55 32.162 28.484 32.3087 28.352V28.264C32.3087 28.2787 32.3307 28.286 32.3747 28.286C32.3307 28.286 32.448 28.11 32.7267 27.758L32.8367 27.626H32.8807C32.9687 27.626 33.0347 27.582 33.0787 27.494C33.1373 27.4207 33.174 27.34 33.1887 27.252C33.218 27.252 33.24 27.2593 33.2547 27.274C33.2693 27.274 33.284 27.274 33.2987 27.274C33.416 27.274 33.4893 27.2007 33.5187 27.054C33.5187 27.0247 33.5187 26.9807 33.5187 26.922C33.5333 26.8633 33.548 26.7973 33.5627 26.724C33.5627 26.6947 33.68 26.5407 33.9147 26.262C33.9147 26.218 33.9953 26.0787 34.1567 25.844L34.3327 25.426C34.406 25.3967 34.472 25.3527 34.5307 25.294C34.56 25.2647 34.56 25.228 34.5307 25.184C34.56 25.1107 34.5967 25.052 34.6407 25.008C34.6847 24.964 34.7507 24.8833 34.8387 24.766V24.656L34.9487 24.392L35.1027 24.304C35.1173 24.2013 35.1173 24.106 35.1027 24.018C35.22 24.0033 35.3593 23.7467 35.5207 23.248H35.5647C35.6673 23.248 35.7333 23.1527 35.7627 22.962C35.748 22.9473 35.7407 22.896 35.7407 22.808C35.7993 22.7493 35.8873 22.6247 36.0047 22.434C36.0047 22.4047 36.012 22.3607 36.0267 22.302C36.056 22.2433 36.1073 22.1553 36.1807 22.038C36.21 22.0087 36.2393 21.9793 36.2687 21.95C36.298 21.906 36.3273 21.8547 36.3567 21.796C36.3713 21.7227 36.386 21.642 36.4007 21.554C36.4153 21.4513 36.4373 21.3413 36.4667 21.224C36.496 21.1947 36.5327 21.158 36.5767 21.114C36.6207 21.0553 36.6647 20.9893 36.7087 20.916V20.63C36.7233 20.6153 36.7527 20.5347 36.7967 20.388C36.3127 20.2267 35.9973 20.146 35.8507 20.146H35.7847C35.77 20.1607 35.7407 20.168 35.6967 20.168C35.682 20.168 35.616 20.1607 35.4987 20.146C35.3813 20.1167 35.308 20.102 35.2787 20.102C35.264 20.102 35.2493 20.1093 35.2347 20.124C35.2347 20.1387 35.2273 20.146 35.2127 20.146C35.198 20.146 35.176 20.146 35.1467 20.146C35.1173 20.146 35.088 20.1387 35.0587 20.124H34.9047C34.89 20.124 34.8533 20.1387 34.7947 20.168C34.7507 20.1827 34.7213 20.19 34.7067 20.19C34.3693 20.19 34.1713 20.1973 34.1127 20.212C34.054 20.212 33.9733 20.2193 33.8707 20.234C33.8413 20.234 33.7607 20.3 33.6287 20.432C33.1007 20.4467 32.6093 20.5933 32.1547 20.872C32.0667 20.916 31.9567 20.96 31.8247 21.004C31.6927 21.048 31.6267 21.0847 31.6267 21.114C31.6267 21.114 31.6193 21.114 31.6047 21.114C31.6047 21.114 31.6047 21.1067 31.6047 21.092H31.5827C31.568 21.092 31.5387 21.1067 31.4947 21.136C31.4653 21.1653 31.3847 21.2167 31.2527 21.29H31.0767C31.0473 21.3633 30.9813 21.4073 30.8787 21.422C30.776 21.422 30.556 21.5467 30.2187 21.796C30.1747 21.796 30.1307 21.8033 30.0867 21.818C30.0573 21.8767 29.9547 21.9427 29.7787 22.016C29.6173 22.0893 29.4927 22.17 29.4047 22.258H29.2947L29.2287 22.39L28.9647 22.544L28.7227 22.654C28.6933 22.698 28.6567 22.7347 28.6127 22.764C28.5687 22.7787 28.5247 22.8007 28.4807 22.83L28.1727 23.138L27.9747 23.424L27.7987 23.534L27.7327 23.622C27.4833 23.666 27.234 23.8787 26.9847 24.26C26.926 24.2893 26.8453 24.326 26.7427 24.37C26.6547 24.414 26.552 24.4653 26.4347 24.524L26.0827 25.008C26.0827 25.052 26.0753 25.0813 26.0607 25.096C26.002 25.1547 25.958 25.184 25.9287 25.184C25.8993 25.184 25.8773 25.1767 25.8627 25.162C25.8627 25.1473 25.848 25.14 25.8187 25.14C25.7453 25.14 25.7087 25.1693 25.7087 25.228V25.36L25.4007 25.668C25.3713 25.712 25.3273 25.7633 25.2687 25.822C25.2247 25.866 25.166 25.9247 25.0927 25.998C25.0633 26.0273 25.0633 26.0567 25.0927 26.086C25.0487 26.0713 25.0267 26.0567 25.0267 26.042C24.9973 26.0713 24.9313 26.1227 24.8287 26.196C24.726 26.2693 24.616 26.3647 24.4987 26.482C24.484 26.526 24.4547 26.5773 24.4107 26.636C24.3667 26.6947 24.3153 26.7607 24.2567 26.834C24.2567 26.8487 24.2567 26.8633 24.2567 26.878C24.2713 26.878 24.2787 26.8927 24.2787 26.922C24.2787 26.966 24.2567 27.032 24.2127 27.12C24.1393 27.12 24.0293 27.186 23.8827 27.318C23.8827 27.362 23.8973 27.4133 23.9267 27.472C23.8387 27.5307 23.7507 27.5967 23.6627 27.67C23.5747 27.7287 23.538 27.824 23.5527 27.956C23.5233 27.9853 23.472 28.0147 23.3987 28.044C23.34 28.088 23.274 28.132 23.2007 28.176C23.2153 28.1907 23.2227 28.2567 23.2227 28.374C23.0173 28.5793 22.922 28.7187 22.9367 28.792C22.878 28.7773 22.834 28.814 22.8047 28.902C22.79 28.99 22.7313 29.1 22.6287 29.232V29.364C22.5407 29.4227 22.4453 29.5033 22.3427 29.606C22.3427 29.6353 22.3353 29.672 22.3207 29.716C22.3207 29.76 22.3133 29.8187 22.2987 29.892C22.1667 29.9507 22.108 30.0313 22.1227 30.134C22.1373 30.2513 22.0567 30.4347 21.8807 30.684C21.822 30.728 21.756 30.794 21.6827 30.882C21.6533 30.9113 21.6313 31.014 21.6167 31.19C21.6167 31.2047 21.5873 31.2633 21.5287 31.366C21.5287 31.4247 21.4847 31.542 21.3967 31.718C21.382 31.7767 21.382 31.9527 21.3967 32.246C21.3967 32.4073 21.3307 32.532 21.1987 32.62L21.1327 33.192C21.1327 33.2653 21.1693 33.3607 21.2427 33.478C21.2133 33.566 21.1987 33.6613 21.1987 33.764L21.2647 33.874C21.2793 33.9033 21.2867 33.9473 21.2867 34.006C21.2867 34.0647 21.294 34.1307 21.3087 34.204C21.3233 34.2187 21.338 34.2407 21.3527 34.27C21.3673 34.314 21.4113 34.402 21.4847 34.534C21.4993 34.5487 21.514 34.5707 21.5287 34.6C21.5433 34.644 21.5653 34.6807 21.5947 34.71C21.7707 35.062 21.91 35.238 22.0127 35.238C22.042 35.238 22.064 35.2307 22.0787 35.216C22.0787 35.304 22.1373 35.3627 22.2547 35.392C22.372 35.436 22.438 35.4947 22.4527 35.568C22.4233 35.5973 22.394 35.612 22.3647 35.612ZM38.4687 21.334C38.4687 21.334 38.4613 21.334 38.4467 21.334C38.4613 21.3193 38.4687 21.3193 38.4687 21.334Z" fill="#0046FC"/>
</svg>
